<svg width="1500" height="291" viewBox="0 0 1500 291" fill="none" xmlns="http://www.w3.org/2000/svg">
<path d="M111.569 27.8718C111.569 42.8797 123.734 55.0441 138.742 55.0441C153.75 55.0441 165.914 42.8572 165.914 27.8718C165.914 25.615 165.395 23.3807 164.47 21.327C162.1 16.3846 159.504 13.9923 159.753 8.07945C160.114 0.112841 149.868 0 144.361 0C138.381 0 131.971 0.835026 126.555 3.54322C122.222 5.73235 118.498 9.04988 115.857 13.1347C113.149 17.3324 111.66 22.2298 111.547 27.2174V27.8493" fill="#DA2128"/>
<path d="M276.704 61.7475C274.74 58.7459 270.814 58.7233 263.524 60.1C252.804 62.086 220.825 68.5856 170.136 70.3234C146.846 71.1359 121.321 71.181 95.6159 68.879C74.6048 67.0059 34.8846 60.619 26.0152 59.7163C21.2533 59.2198 10.398 58.4976 4.84619 63.1241C-2.4885 69.2401 -0.412221 78.3126 3.94346 85.557C3.94346 85.557 13.5801 101.039 35.855 105.598C68.1954 110.969 118.252 109.547 134.749 107.719C171.423 104.311 199.701 99.0303 222.111 92.9143C222.111 92.9143 252.014 84.3383 266.616 76.1235C272.122 73.0316 279.976 67.1187 276.704 61.7475ZM167.248 127.963C148.99 118.055 127.279 118.01 109.292 128.301C80.3371 144.866 70.204 181.359 87.4687 211.15C101.596 233.244 120.441 227.963 125.812 222.366C132.538 214.896 130.01 207.223 126.422 202.416C119.109 193.366 118.365 187.205 118.365 183.368C118.365 171.655 127.866 162.131 139.601 162.131C145.763 162.131 151.721 164.885 155.738 169.579C161.335 176.146 162.012 185.625 161.606 193.185C159.146 238.593 140.64 277.726 139.692 280.592C138.857 282.668 137.457 287.882 141.384 290.003C144.386 291.493 147.907 290.139 151.36 287.069C159.89 279.78 176.365 259.197 185.144 238.954C189.884 228.053 201.574 199.143 197.76 170.301C193.856 148.049 179.615 134.62 167.27 127.94L167.248 127.963Z" fill="#009476"/>
<path d="M402.04 78.7012V59.7012H430.04V78.7012H467.44V96.7012H447.84C452.24 102.034 455.707 108.368 458.24 115.701C460.907 122.901 462.307 130.901 462.44 139.701C462.44 148.101 461.24 155.901 458.84 163.101C456.574 170.301 453.374 176.568 449.24 181.901C445.24 187.101 440.374 191.235 434.64 194.301C429.04 197.235 422.84 198.701 416.04 198.701C408.974 198.701 402.574 197.235 396.84 194.301C391.24 191.368 386.374 187.301 382.24 182.101C378.107 176.768 374.907 170.501 372.64 163.301C370.507 155.968 369.44 148.101 369.44 139.701C369.44 130.901 370.707 122.901 373.24 115.701C375.907 108.368 379.44 102.034 383.84 96.7012H365.44V78.7012H402.04ZM416.04 97.1012C413.24 97.1012 410.64 98.1012 408.24 100.101C405.84 102.101 403.774 104.968 402.04 108.701C400.307 112.434 398.907 116.968 397.84 122.301C396.907 127.501 396.44 133.301 396.44 139.701C396.44 145.835 396.907 151.435 397.84 156.501C398.774 161.568 400.107 165.901 401.84 169.501C403.707 173.101 405.774 175.901 408.04 177.901C410.44 179.768 413.04 180.701 415.84 180.701C418.64 180.701 421.24 179.768 423.64 177.901C426.04 175.901 428.107 173.168 429.84 169.701C431.574 166.101 432.907 161.768 433.84 156.701C434.907 151.635 435.44 145.968 435.44 139.701C435.44 126.101 433.64 115.635 430.04 108.301C426.44 100.835 421.774 97.1012 416.04 97.1012ZM512.44 132.701V240.701H485.44V59.7012H512.44V114.701H538.44V132.701H512.44ZM587.319 170.701H632.719C635.785 170.701 638.652 170.701 641.319 170.701C644.119 170.701 646.785 170.568 649.319 170.301C651.985 170.035 654.652 169.501 657.319 168.701C659.985 167.901 662.719 166.768 665.519 165.301V59.7012H692.519V114.701H718.519V132.701H692.519V240.701H665.519V183.301C660.852 185.435 655.519 186.901 649.519 187.701C643.652 188.368 637.852 188.701 632.119 188.701H572.319C569.385 188.701 566.652 188.035 564.119 186.701C561.585 185.368 559.385 183.568 557.519 181.301C555.652 179.035 554.185 176.435 553.119 173.501C552.052 170.435 551.519 167.235 551.519 163.901V67.7012H578.519V163.301C578.519 168.235 581.452 170.701 587.319 170.701ZM874.958 96.9012C869.891 93.1678 864.491 90.5678 858.758 89.1012C853.024 87.6345 848.024 86.9012 843.758 86.9012C837.091 86.9012 831.824 88.5678 827.958 91.9012C824.224 95.1012 822.358 99.3012 822.358 104.501C822.358 107.301 823.091 110.034 824.558 112.701C826.024 115.368 828.091 118.101 830.758 120.901C833.558 123.568 836.958 126.501 840.958 129.701C845.091 132.768 849.758 136.168 854.958 139.901C860.291 143.901 864.958 147.701 868.958 151.301C873.091 154.768 876.558 158.301 879.358 161.901C882.158 165.501 884.224 169.368 885.558 173.501C887.024 177.501 887.758 181.968 887.758 186.901C887.758 192.368 886.624 197.701 884.358 202.901C882.224 207.968 878.958 212.501 874.558 216.501C870.291 220.501 864.958 223.701 858.558 226.101C852.158 228.501 844.824 229.701 836.558 229.701C829.624 229.701 822.091 228.835 813.958 227.101C805.824 225.501 798.358 222.701 791.558 218.701L797.558 198.701C803.024 202.168 809.091 205.101 815.758 207.501C822.424 209.768 829.024 210.901 835.558 210.901C838.891 210.901 842.024 210.435 844.958 209.501C848.024 208.435 850.691 206.968 852.958 205.101C855.358 203.101 857.224 200.701 858.558 197.901C859.891 194.968 860.558 191.635 860.558 187.901C860.558 184.035 859.758 180.501 858.158 177.301C856.558 174.101 854.424 171.101 851.758 168.301C849.091 165.501 846.091 162.901 842.758 160.501C839.424 157.968 836.091 155.501 832.758 153.101C827.691 149.501 822.824 145.968 818.158 142.501C813.624 139.035 809.624 135.435 806.158 131.701C802.824 127.835 800.158 123.768 798.158 119.501C796.158 115.101 795.158 110.168 795.158 104.701C795.158 99.1012 796.224 94.1012 798.358 89.7012C800.624 85.1678 803.758 81.3012 807.758 78.1012C811.758 74.9012 816.624 72.4345 822.358 70.7012C828.091 68.9678 834.491 68.1012 841.558 68.1012C845.024 68.1012 848.558 68.3678 852.158 68.9012C855.758 69.3012 859.291 69.9678 862.758 70.9012C866.358 71.8345 869.758 72.9012 872.958 74.1012C876.158 75.3012 879.024 76.7012 881.558 78.3012L874.958 96.9012ZM939.922 63.5012V119.501C945.388 113.901 950.922 110.168 956.522 108.301C962.255 106.435 967.922 105.501 973.522 105.501C980.322 105.501 986.522 106.568 992.122 108.701C997.722 110.835 1002.46 113.968 1006.32 118.101C1010.32 122.101 1013.39 126.968 1015.52 132.701C1017.66 138.435 1018.72 144.901 1018.72 152.101V227.501H992.922V156.501C992.922 146.635 990.855 138.701 986.722 132.701C982.588 126.701 976.322 123.701 967.922 123.701C964.055 123.701 960.388 124.501 956.922 126.101C953.588 127.701 950.655 129.968 948.122 132.901C945.722 135.835 943.788 139.368 942.322 143.501C940.855 147.635 940.122 152.235 940.122 157.301V227.501H914.522V63.5012H939.922ZM1044.32 167.501C1044.32 158.568 1045.79 150.301 1048.72 142.701C1051.65 135.101 1055.72 128.568 1060.92 123.101C1066.12 117.635 1072.19 113.368 1079.12 110.301C1086.05 107.234 1093.52 105.701 1101.52 105.701C1109.52 105.701 1116.99 107.234 1123.92 110.301C1130.99 113.368 1137.12 117.635 1142.32 123.101C1147.52 128.568 1151.59 135.101 1154.52 142.701C1157.59 150.301 1159.12 158.568 1159.12 167.501C1159.12 176.568 1157.59 184.968 1154.52 192.701C1151.59 200.301 1147.52 206.835 1142.32 212.301C1137.12 217.768 1130.99 222.035 1123.92 225.101C1116.99 228.168 1109.52 229.701 1101.52 229.701C1093.52 229.701 1086.05 228.168 1079.12 225.101C1072.19 222.035 1066.12 217.768 1060.92 212.301C1055.72 206.835 1051.65 200.301 1048.72 192.701C1045.79 184.968 1044.32 176.568 1044.32 167.501ZM1071.32 167.501C1071.32 174.435 1072.05 180.768 1073.52 186.501C1075.12 192.101 1077.25 196.901 1079.92 200.901C1082.72 204.901 1085.92 208.035 1089.52 210.301C1093.25 212.435 1097.25 213.501 1101.52 213.501C1105.79 213.501 1109.72 212.435 1113.32 210.301C1117.05 208.035 1120.25 204.901 1122.92 200.901C1125.72 196.901 1127.92 192.101 1129.52 186.501C1131.12 180.768 1131.92 174.435 1131.92 167.501C1131.92 160.568 1131.12 154.301 1129.52 148.701C1127.92 143.101 1125.72 138.301 1122.92 134.301C1120.25 130.301 1117.05 127.234 1113.32 125.101C1109.72 122.835 1105.79 121.701 1101.52 121.701C1097.25 121.701 1093.25 122.835 1089.52 125.101C1085.92 127.234 1082.72 130.301 1079.92 134.301C1077.25 138.301 1075.12 143.101 1073.52 148.701C1072.05 154.301 1071.32 160.568 1071.32 167.501ZM1210.43 107.901V121.701C1214.7 117.301 1219.37 113.568 1224.43 110.501C1229.63 107.301 1235.03 105.701 1240.63 105.701C1243.57 105.701 1246.63 105.901 1249.83 106.301C1253.03 106.701 1256.5 107.901 1260.23 109.901L1255.43 128.101C1252.1 126.368 1248.77 125.301 1245.43 124.901C1242.1 124.368 1239.17 124.235 1236.63 124.501C1234.1 124.768 1231.3 125.568 1228.23 126.901C1225.3 128.101 1222.5 130.035 1219.83 132.701C1217.3 135.235 1215.1 138.568 1213.23 142.701C1211.5 146.835 1210.63 151.835 1210.63 157.701V227.501H1184.83V107.901H1210.43ZM1313.17 75.5012V107.901H1343.77V123.901H1313.17V187.901C1313.17 192.568 1313.63 196.435 1314.57 199.501C1315.5 202.435 1316.77 204.835 1318.37 206.701C1319.97 208.435 1321.83 209.701 1323.97 210.501C1326.1 211.168 1328.43 211.501 1330.97 211.501C1333.63 211.501 1336.37 211.101 1339.17 210.301C1341.97 209.368 1344.37 208.301 1346.37 207.101L1348.97 224.101C1344.57 225.968 1340.17 227.368 1335.77 228.301C1331.37 229.235 1326.57 229.701 1321.37 229.701C1311.1 229.701 1302.83 226.435 1296.57 219.901C1290.3 213.501 1287.17 204.301 1287.17 192.301V123.901H1270.77V107.901H1287.17V88.5012L1313.17 75.5012ZM1432.22 130.701C1427.82 127.634 1423.56 125.568 1419.42 124.501C1415.29 123.301 1411.49 122.701 1408.02 122.701C1402.96 122.701 1398.89 123.768 1395.82 125.901C1392.89 128.035 1391.42 131.235 1391.42 135.501C1391.42 138.301 1392.42 141.035 1394.42 143.701C1396.42 146.235 1398.82 148.635 1401.62 150.901C1404.42 153.035 1407.29 155.035 1410.22 156.901C1413.29 158.635 1415.76 160.235 1417.62 161.701C1424.02 166.635 1429.36 171.901 1433.62 177.501C1437.89 182.968 1440.02 189.235 1440.02 196.301C1440.02 201.101 1439.02 205.568 1437.02 209.701C1435.02 213.835 1432.16 217.368 1428.42 220.301C1424.69 223.235 1420.16 225.501 1414.82 227.101C1409.62 228.835 1403.76 229.701 1397.22 229.701C1391.36 229.701 1385.16 228.901 1378.62 227.301C1372.22 225.701 1366.56 223.368 1361.62 220.301L1367.02 201.701C1371.69 205.301 1376.56 207.968 1381.62 209.701C1386.82 211.435 1391.36 212.301 1395.22 212.301C1401.36 212.301 1406.09 210.968 1409.42 208.301C1412.89 205.635 1414.62 202.235 1414.62 198.101C1414.62 193.168 1412.89 188.835 1409.42 185.101C1405.96 181.235 1400.76 176.968 1393.82 172.301C1389.96 169.768 1386.36 167.235 1383.02 164.701C1379.69 162.168 1376.76 159.568 1374.22 156.901C1371.69 154.101 1369.69 151.168 1368.22 148.101C1366.76 145.035 1366.02 141.568 1366.02 137.701C1366.02 127.435 1369.69 119.568 1377.02 114.101C1384.36 108.501 1394.16 105.701 1406.42 105.701C1412.02 105.701 1417.49 106.368 1422.82 107.701C1428.16 109.034 1432.76 110.834 1436.62 113.101L1432.22 130.701Z" fill="#009476"/>
</svg>
