<svg width="675" height="179" viewBox="0 0 675 179" fill="none" xmlns="http://www.w3.org/2000/svg">
<path d="M68.3556 17.0761C68.3556 26.271 75.8083 33.7237 85.0031 33.7237C94.198 33.7237 101.651 26.2572 101.651 17.0761C101.651 15.6935 101.333 14.3246 100.766 13.0664C99.3139 10.0383 97.7238 8.57264 97.8759 4.95001C98.0972 0.0691341 91.8198 0 88.446 0C84.7819 0 80.8551 0.511593 77.5366 2.17081C74.8819 3.51202 72.6005 5.54456 70.9827 8.04722C69.3235 10.619 68.4109 13.6194 68.3418 16.6752V17.0623" fill="#DA2128"/>
<path d="M169.527 37.8303C168.324 35.9913 165.918 35.9775 161.452 36.8209C154.885 38.0377 135.292 42.0198 104.237 43.0845C89.9676 43.5822 74.3294 43.6099 58.5806 42.1996C45.7079 41.0519 21.3726 37.1389 15.9387 36.5859C13.0212 36.2817 6.3705 35.8392 2.9691 38.6737C-1.52462 42.4208 -0.252554 47.9792 2.41603 52.4176C2.41603 52.4176 8.32009 61.9028 21.9672 64.6958C41.781 67.9866 72.449 67.1155 82.5564 65.9956C105.025 63.9077 122.35 60.6722 136.08 56.9252C136.08 56.9252 154.401 51.671 163.347 46.638C166.72 44.7437 171.532 41.1211 169.527 37.8303ZM102.467 78.3982C91.2811 72.3282 77.9797 72.3006 66.9597 78.6056C49.2199 88.7545 43.0116 111.113 53.5891 129.364C62.2447 142.9 73.7902 139.665 77.0809 136.236C81.2013 131.659 79.6527 126.958 77.4543 124.013C72.9744 118.468 72.5181 114.694 72.5181 112.343C72.5181 105.167 78.3392 99.3321 85.5291 99.3321C89.3039 99.3321 92.9542 101.019 95.4153 103.895C98.8444 107.919 99.2592 113.726 99.0103 118.358C97.5032 146.177 86.1652 170.153 85.5845 171.909C85.0729 173.181 84.2156 176.375 86.6215 177.675C88.4604 178.588 90.6174 177.758 92.7329 175.877C97.9595 171.411 108.053 158.801 113.432 146.399C116.335 139.72 123.498 122.008 121.161 104.337C118.769 90.7041 110.044 82.4772 102.481 78.3844L102.467 78.3982Z" fill="#009476"/>
<path d="M225.542 45.55V33.2H243.742V45.55H268.052V57.25H255.312C258.172 60.7167 260.426 64.8333 262.072 69.6C263.806 74.28 264.716 79.48 264.802 85.2C264.802 90.66 264.022 95.73 262.462 100.41C260.989 105.09 258.909 109.163 256.222 112.63C253.622 116.01 250.459 118.697 246.732 120.69C243.092 122.597 239.062 123.55 234.642 123.55C230.049 123.55 225.889 122.597 222.162 120.69C218.522 118.783 215.359 116.14 212.672 112.76C209.986 109.293 207.906 105.22 206.432 100.54C205.046 95.7733 204.352 90.66 204.352 85.2C204.352 79.48 205.176 74.28 206.822 69.6C208.556 64.8333 210.852 60.7167 213.712 57.25H201.752V45.55H225.542ZM234.642 57.51C232.822 57.51 231.132 58.16 229.572 59.46C228.012 60.76 226.669 62.6233 225.542 65.05C224.416 67.4767 223.506 70.4233 222.812 73.89C222.206 77.27 221.902 81.04 221.902 85.2C221.902 89.1867 222.206 92.8267 222.812 96.12C223.419 99.4133 224.286 102.23 225.412 104.57C226.626 106.91 227.969 108.73 229.442 110.03C231.002 111.243 232.692 111.85 234.512 111.85C236.332 111.85 238.022 111.243 239.582 110.03C241.142 108.73 242.486 106.953 243.612 104.7C244.739 102.36 245.606 99.5433 246.212 96.25C246.906 92.9567 247.252 89.2733 247.252 85.2C247.252 76.36 246.082 69.5567 243.742 64.79C241.402 59.9367 238.369 57.51 234.642 57.51ZM297.302 80.65V150.85H279.752V33.2H297.302V68.95H314.202V80.65H297.302ZM345.973 105.35H375.483C377.476 105.35 379.34 105.35 381.073 105.35C382.893 105.35 384.626 105.263 386.273 105.09C388.006 104.917 389.74 104.57 391.473 104.05C393.206 103.53 394.983 102.793 396.803 101.84V33.2H414.353V68.95H431.253V80.65H414.353V150.85H396.803V113.54C393.77 114.927 390.303 115.88 386.403 116.4C382.59 116.833 378.82 117.05 375.093 117.05H336.223C334.316 117.05 332.54 116.617 330.893 115.75C329.246 114.883 327.816 113.713 326.603 112.24C325.39 110.767 324.436 109.077 323.743 107.17C323.05 105.177 322.703 103.097 322.703 100.93V38.4H340.253V100.54C340.253 103.747 342.16 105.35 345.973 105.35ZM538.529 40.09V52.05H500.179V86.63H537.619V98.46H500.179V142.27H482.369V40.09H538.529ZM571.272 142.27H553.462V40.09H571.272V142.27ZM632.888 142.27H615.208V52.05H584.528V40.09H663.698V52.05H632.888V142.27Z" fill="#009476"/>
</svg>
